<?xml version="1.0" encoding="utf-8"?>
<!-- Svg Vector Icons : http://www.onlinewebfonts.com/icon -->
<!DOCTYPE svg PUBLIC "-//W3C//DTD SVG 1.1//EN" "http://www.w3.org/Graphics/SVG/1.1/DTD/svg11.dtd">
<svg version="1.1" xmlns="http://www.w3.org/2000/svg" xmlns:xlink="http://www.w3.org/1999/xlink" x="0px" y="0px" viewBox="0 0 1000 1000" enable-background="new 0 0 1000 1000" xml:space="preserve">
<metadata> Svg Vector Icons : http://www.onlinewebfonts.com/icon </metadata>
<g><path fill="#403D34" d="M894.3,768.3h-231L500,931.7L336.7,768.3H103.3C52,768.3,10,726.3,10,675V161.7c0-51.3,42-93.3,93.3-93.3h791c51.3,0,95.7,42,95.7,93.3V675C990,726.3,945.7,768.3,894.3,768.3L894.3,768.3z M896.7,208.3c0-25.7-23.3-46.7-49-46.7H150c-25.7,0-46.7,21-46.7,46.7v420c0,25.7,21,46.7,46.7,46.7h233.3L500,791.7L616.7,675H850c25.7,0,46.7-21,46.7-46.7L896.7,208.3L896.7,208.3z M724,490.7c-37.3,0-67.7-30.3-67.7-67.7c0-37.3,30.3-67.7,67.7-67.7c37.3,0,67.7,30.3,67.7,67.7C789.3,460.3,761.3,490.7,724,490.7L724,490.7z M495.3,490.7c-37.3,0-67.7-30.3-67.7-67.7c0-37.3,30.3-67.7,67.7-67.7S563,385.7,563,423C563,460.3,532.7,490.7,495.3,490.7L495.3,490.7z M266.7,490.7c-37.3,0-67.7-30.3-67.7-67.7c0-37.3,30.3-67.7,67.7-67.7c37.3,0,67.7,30.3,67.7,67.7C334.3,460.3,304,490.7,266.7,490.7L266.7,490.7z"/></g>
</svg>
